<svg xmlns="http://www.w3.org/2000/svg" width="25" height="24" fill="none" viewBox="0 0 25 24" id="codeigniter"><rect width="24" height="24" x=".463" fill="url(#paint0_linear_302_4650)" rx="8"></rect><path fill="#fff" d="M12.8612 4C12.8612 7.80219 6 9.68842 6 14.6662C6.05542 18.3832 9.10028 20.0377 12.8113 19.9993C12.795 19.348 12.6309 18.5405 12.0273 18.1453C10.6631 17.2521 8.77801 16.9545 8.87723 15.5159C8.97644 14.0772 10.5143 11.8449 11.8289 10.5799C11.432 12.2252 10.9608 15.4166 12.2505 15.9127C13.5404 16.4087 15.2022 15.3505 15.8719 14.6477C16.3845 14.9784 17.3304 15.8581 17.0129 16.7312C16.616 17.8225 15.3193 17.751 14.9046 18.3434C14.662 18.69 14.5889 19.3393 14.5668 19.8683C17.5249 19.3598 19.8173 17.4033 19.8173 14.4744C19.8173 12.7133 18.5524 11.0932 16.4423 10.0593C16.4423 10.0593 16.4175 12.0436 14.7557 11.5228C11.6699 10.5556 16.3183 7.00847 12.8612 4Z"></path><defs><linearGradient id="paint0_linear_302_4650" x1=".463" x2="24.463" y1="12" y2="12" gradientUnits="userSpaceOnUse"><stop stop-color="#ED6D6B"></stop><stop offset="1" stop-color="#F0B076"></stop></linearGradient></defs></svg>